<svg xmlns="http://www.w3.org/2000/svg" style="display:none" id="customSvgLibrary"><symbol xmlns:xlink="http://www.w3.org/1999/xlink" zoomandpan="magnify" viewbox="0 0 375 374.999991" preserveaspectratio="xMidYMid meet" version="1.0" id="symbol_bkk79tat"><defs><g></g></defs><rect x="-37.5" width="450" fill="#ffffff" y="-37.499999" height="449.999989" fill-opacity="1"></rect><rect x="-37.5" width="450" fill="#ffffff" y="-37.499999" height="449.999989" fill-opacity="1"></rect><g fill="#ffffff" fill-opacity="1"><g transform="translate(18.207872, 245.431962)"><g><path d="M 318.140625 -152.390625 C 318.140625 -162.203125 312.710938 -184.328125 272.632812 -184.328125 C 251.546875 -184.328125 230.464844 -181.824219 210.632812 -177.441406 C 217.105469 -183.285156 223.574219 -188.921875 230.253906 -194.558594 C 232.96875 -196.855469 233.804688 -195.601562 234.429688 -196.226562 C 234.847656 -196.644531 235.472656 -198.316406 235.472656 -199.984375 C 235.683594 -206.664062 233.59375 -208.335938 230.253906 -207.917969 C 225.664062 -207.5 206.039062 -190.59375 185.375 -171.179688 C 116.066406 -150.300781 63.460938 -110.222656 63.460938 -86.839844 C 63.460938 -77.238281 81.207031 -75.152344 77.449219 -82.875 C 70.140625 -97.695312 109.386719 -130.679688 166.375 -152.390625 C 160.113281 -146.335938 154.476562 -140.492188 149.46875 -135.0625 C 90.597656 -73.480469 29.433594 5.425781 11.480469 52.1875 C 7.515625 63.042969 21.292969 63.253906 22.546875 59.078125 C 24.007812 55.109375 30.894531 43.210938 43.003906 28.808594 C 54.695312 15.03125 67.011719 -0.625 59.914062 5.011719 C 49.890625 12.941406 43.839844 17.953125 39.453125 21.085938 C 35.070312 24.214844 48.640625 7.304688 57.199219 -6.054688 C 64.503906 -17.535156 116.277344 -89.347656 192.886719 -161.367188 C 218.148438 -168.671875 245.703125 -173.265625 273.675781 -173.265625 C 301.441406 -173.265625 306.242188 -161.15625 306.242188 -154.058594 C 306.242188 -122.746094 196.019531 -61.582031 124.417969 -56.78125 C 123.164062 -60.539062 121.496094 -63.667969 118.570312 -63.667969 C 113.144531 -63.667969 108.761719 -57.40625 108.761719 -52.398438 C 108.761719 -49.265625 112.308594 -46.34375 117.527344 -46.132812 C 125.667969 -13.570312 139.03125 39.871094 174.101562 39.871094 C 189.546875 39.871094 200.195312 29.644531 204.996094 23.171875 C 213.136719 12.316406 210.007812 12.523438 207.917969 14.195312 C 197.273438 22.753906 187.667969 29.433594 177.023438 29.433594 C 150.300781 29.433594 136.105469 -13.359375 126.921875 -47.597656 C 191.636719 -49.683594 318.140625 -114.1875 318.140625 -152.390625 Z M 318.140625 -152.390625 "></path></g></g></g><g fill="#ffffff" fill-opacity="1"><g transform="translate(237.184006, 245.431962)"><g><path d="M 20.667969 7.722656 C 24.425781 7.722656 26.71875 3.339844 29.433594 0.417969 C 31.730469 -2.296875 34.445312 -3.757812 34.445312 -7.933594 C 34.445312 -11.273438 32.148438 -13.152344 29.433594 -13.152344 C 22.960938 -13.152344 15.867188 -4.59375 15.867188 1.671875 C 15.867188 4.59375 17.328125 7.722656 20.667969 7.722656 Z M 20.667969 7.722656 "></path></g></g></g></symbol><symbol xmlns:xlink="http://www.w3.org/1999/xlink" zoomAndPan="magnify" viewBox="0 0 375 374.999991" preserveAspectRatio="xMidYMid meet" version="1.0" id="symbol_v3tsrdn5"><defs><g></g><clipPath id="2b370feb64"><path d="M 76.777344 73 L 298.027344 73 L 298.027344 302 L 76.777344 302 Z M 76.777344 73 " clip-rule="nonzero"></path></clipPath></defs><g clip-path="url(#2b370feb64)"><path fill="#203e58" d="M 159.589844 76.703125 C 161.382812 76.253906 163.183594 75.847656 164.996094 75.484375 C 166.808594 75.121094 168.628906 74.804688 170.453125 74.53125 C 172.28125 74.257812 174.113281 74.027344 175.953125 73.84375 C 177.792969 73.65625 179.632812 73.519531 181.480469 73.421875 C 183.324219 73.328125 185.171875 73.277344 187.019531 73.273438 C 188.867188 73.265625 190.714844 73.308594 192.558594 73.390625 C 194.40625 73.476562 196.246094 73.605469 198.085938 73.78125 C 199.925781 73.953125 201.761719 74.171875 203.589844 74.4375 C 205.417969 74.699219 207.238281 75.007812 209.054688 75.359375 C 210.867188 75.710938 212.671875 76.105469 214.46875 76.546875 C 216.261719 76.984375 218.046875 77.46875 219.816406 77.996094 C 221.585938 78.519531 223.34375 79.089844 225.089844 79.703125 C 226.832031 80.3125 228.558594 80.96875 230.273438 81.664062 C 231.984375 82.359375 233.679688 83.097656 235.355469 83.875 C 237.03125 84.652344 238.6875 85.472656 240.324219 86.332031 C 241.960938 87.191406 243.574219 88.089844 245.167969 89.023438 C 246.761719 89.960938 248.328125 90.9375 249.875 91.953125 C 251.421875 92.964844 252.941406 94.015625 254.433594 95.105469 C 255.929688 96.191406 257.398438 97.316406 258.835938 98.472656 C 260.277344 99.632812 261.6875 100.824219 263.070312 102.054688 C 264.453125 103.28125 265.804688 104.542969 267.125 105.835938 C 268.445312 107.128906 269.734375 108.453125 270.988281 109.808594 C 272.246094 111.164062 273.46875 112.550781 274.65625 113.964844 C 275.847656 115.382812 277 116.824219 278.121094 118.296875 C 279.238281 119.769531 280.324219 121.265625 281.371094 122.789062 C 282.414062 124.3125 283.425781 125.863281 284.394531 127.4375 C 285.367188 129.007812 286.300781 130.605469 287.191406 132.222656 C 288.085938 133.84375 288.941406 135.480469 289.753906 137.140625 C 290.570312 138.800781 291.34375 140.480469 292.074219 142.179688 C 292.808594 143.878906 293.5 145.59375 294.148438 147.324219 C 294.796875 149.054688 295.40625 150.800781 295.96875 152.5625 C 296.535156 154.324219 297.054688 156.097656 297.535156 157.882812 C 297.710938 158.542969 297.886719 159.214844 298.054688 159.898438 L 296.308594 160.507812 C 296.132812 159.789062 295.949219 159.074219 295.757812 158.355469 C 295.28125 156.585938 294.765625 154.828125 294.207031 153.082031 C 293.644531 151.339844 293.042969 149.609375 292.398438 147.890625 C 291.753906 146.175781 291.070312 144.476562 290.339844 142.796875 C 289.613281 141.113281 288.84375 139.449219 288.035156 137.804688 C 287.226562 136.160156 286.378906 134.539062 285.488281 132.933594 C 284.601562 131.332031 283.675781 129.75 282.707031 128.195312 C 281.742188 126.636719 280.738281 125.105469 279.699219 123.59375 C 278.660156 122.085938 277.582031 120.605469 276.46875 119.148438 C 275.355469 117.695312 274.207031 116.265625 273.023438 114.867188 C 271.839844 113.46875 270.625 112.097656 269.375 110.757812 C 268.125 109.421875 266.84375 108.113281 265.527344 106.835938 C 264.214844 105.558594 262.871094 104.316406 261.496094 103.105469 C 260.121094 101.894531 258.714844 100.714844 257.285156 99.574219 C 255.851562 98.433594 254.390625 97.324219 252.90625 96.253906 C 251.417969 95.183594 249.90625 94.152344 248.371094 93.15625 C 246.832031 92.160156 245.273438 91.199219 243.6875 90.28125 C 242.105469 89.359375 240.5 88.480469 238.871094 87.636719 C 237.242188 86.796875 235.597656 85.996094 233.929688 85.234375 C 232.265625 84.476562 230.582031 83.753906 228.878906 83.078125 C 227.179688 82.398438 225.460938 81.765625 223.730469 81.167969 C 221.996094 80.574219 220.25 80.023438 218.492188 79.515625 C 216.730469 79.007812 214.960938 78.542969 213.179688 78.121094 C 211.394531 77.699219 209.605469 77.324219 207.804688 76.988281 C 206.003906 76.65625 204.195312 76.367188 202.378906 76.121094 C 200.566406 75.875 198.746094 75.675781 196.921875 75.519531 C 195.09375 75.363281 193.269531 75.25 191.4375 75.183594 C 189.609375 75.117188 187.777344 75.097656 185.945312 75.121094 C 184.113281 75.144531 182.285156 75.210938 180.457031 75.324219 C 178.628906 75.4375 176.804688 75.59375 174.984375 75.796875 C 173.164062 76 171.351562 76.246094 169.542969 76.539062 C 167.734375 76.828125 165.933594 77.164062 164.144531 77.542969 C 162.351562 77.925781 160.570312 78.347656 158.800781 78.8125 C 159.074219 78.117188 159.34375 77.421875 159.589844 76.707031 Z M 78.523438 214.738281 C 78.671875 215.324219 78.816406 215.910156 78.976562 216.496094 C 79.453125 218.273438 79.96875 220.035156 80.53125 221.785156 C 81.09375 223.535156 81.699219 225.269531 82.34375 226.988281 C 82.992188 228.707031 83.679688 230.410156 84.410156 232.097656 C 85.140625 233.78125 85.910156 235.449219 86.722656 237.097656 C 87.535156 238.746094 88.386719 240.375 89.277344 241.980469 C 90.171875 243.585938 91.101562 245.167969 92.070312 246.730469 C 93.039062 248.289062 94.046875 249.828125 95.089844 251.335938 C 96.136719 252.847656 97.21875 254.332031 98.335938 255.789062 C 99.453125 257.25 100.605469 258.679688 101.792969 260.078125 C 102.980469 261.480469 104.199219 262.851562 105.457031 264.195312 C 106.710938 265.535156 107.996094 266.84375 109.316406 268.125 C 110.636719 269.402344 111.984375 270.648438 113.367188 271.859375 C 114.746094 273.070312 116.15625 274.246094 117.59375 275.390625 C 119.03125 276.53125 120.496094 277.640625 121.988281 278.710938 C 123.480469 279.78125 124.996094 280.8125 126.539062 281.808594 C 128.082031 282.804688 129.648438 283.765625 131.238281 284.683594 C 132.828125 285.601562 134.441406 286.480469 136.074219 287.320312 C 137.707031 288.164062 139.359375 288.960938 141.03125 289.71875 C 142.703125 290.480469 144.390625 291.195312 146.101562 291.871094 C 147.808594 292.546875 149.53125 293.183594 151.269531 293.773438 C 153.007812 294.363281 154.757812 294.914062 156.523438 295.417969 C 158.289062 295.921875 160.066406 296.382812 161.851562 296.800781 C 163.640625 297.21875 165.4375 297.59375 167.246094 297.921875 C 169.050781 298.253906 170.863281 298.539062 172.683594 298.777344 C 174.503906 299.019531 176.328125 299.214844 178.160156 299.367188 C 179.988281 299.515625 181.820312 299.621094 183.65625 299.683594 C 185.492188 299.742188 187.328125 299.757812 189.164062 299.730469 C 190.996094 299.699219 192.832031 299.625 194.664062 299.507812 C 196.496094 299.386719 198.324219 299.222656 200.148438 299.015625 C 201.972656 298.804688 203.789062 298.550781 205.601562 298.253906 C 207.414062 297.953125 209.214844 297.613281 211.011719 297.222656 C 212.804688 296.835938 214.589844 296.40625 216.363281 295.929688 C 216.078125 296.628906 215.800781 297.332031 215.542969 298.042969 C 213.75 298.5 211.945312 298.914062 210.128906 299.28125 C 208.316406 299.652344 206.492188 299.976562 204.660156 300.257812 C 202.832031 300.539062 200.996094 300.773438 199.152344 300.964844 C 197.308594 301.15625 195.464844 301.304688 193.613281 301.40625 C 191.765625 301.507812 189.914062 301.5625 188.0625 301.574219 C 186.210938 301.585938 184.359375 301.550781 182.511719 301.46875 C 180.660156 301.390625 178.8125 301.265625 176.96875 301.097656 C 175.125 300.929688 173.285156 300.714844 171.449219 300.457031 C 169.617188 300.195312 167.789062 299.894531 165.972656 299.546875 C 164.152344 299.199219 162.34375 298.804688 160.542969 298.371094 C 158.742188 297.933594 156.953125 297.453125 155.179688 296.929688 C 153.402344 296.40625 151.636719 295.839844 149.890625 295.230469 C 148.140625 294.621094 146.40625 293.96875 144.691406 293.277344 C 142.972656 292.582031 141.273438 291.847656 139.589844 291.070312 C 137.910156 290.292969 136.246094 289.476562 134.605469 288.621094 C 132.964844 287.761719 131.34375 286.863281 129.746094 285.929688 C 128.148438 284.992188 126.574219 284.015625 125.023438 283.003906 C 123.472656 281.992188 121.945312 280.941406 120.445312 279.851562 C 118.945312 278.765625 117.472656 277.640625 116.03125 276.480469 C 114.585938 275.324219 113.167969 274.128906 111.78125 272.898438 C 110.394531 271.671875 109.039062 270.410156 107.714844 269.117188 C 106.386719 267.820312 105.09375 266.496094 103.832031 265.136719 C 102.570312 263.78125 101.34375 262.390625 100.152344 260.976562 C 98.957031 259.558594 97.800781 258.113281 96.675781 256.636719 C 95.554688 255.164062 94.464844 253.664062 93.417969 252.136719 C 92.367188 250.609375 91.355469 249.058594 90.378906 247.480469 C 89.40625 245.90625 88.46875 244.308594 87.570312 242.683594 C 86.675781 241.0625 85.820312 239.421875 85 237.757812 C 84.183594 236.09375 83.410156 234.410156 82.671875 232.710938 C 81.9375 231.007812 81.246094 229.289062 80.59375 227.554688 C 79.941406 225.820312 79.332031 224.070312 78.765625 222.304688 C 78.203125 220.539062 77.679688 218.761719 77.199219 216.972656 C 77.054688 216.433594 76.917969 215.890625 76.777344 215.351562 Z M 78.523438 214.738281 " fill-opacity="1" fill-rule="evenodd"></path></g><g fill="#203e58" fill-opacity="1"><g transform="translate(58.641379, 195.875438)"><g><path d="M 11.359375 0 L 7.78125 -5.40625 L 5.546875 -5.40625 L 5.546875 0 L 2.1875 0 L 2.1875 -17 L 7.34375 -17 C 9.445312 -17 11.082031 -16.484375 12.25 -15.453125 C 13.414062 -14.429688 14 -13.035156 14 -11.265625 C 14 -10.222656 13.773438 -9.242188 13.328125 -8.328125 C 12.890625 -7.410156 12.21875 -6.691406 11.3125 -6.171875 L 15.265625 0 Z M 5.546875 -8.640625 L 7.921875 -8.640625 C 8.828125 -8.640625 9.488281 -8.90625 9.90625 -9.4375 C 10.320312 -9.96875 10.53125 -10.539062 10.53125 -11.15625 C 10.53125 -11.769531 10.351562 -12.359375 10 -12.921875 C 9.644531 -13.484375 8.957031 -13.765625 7.9375 -13.765625 L 5.546875 -13.765625 Z M 5.546875 -8.640625 "></path></g></g></g><g fill="#203e58" fill-opacity="1"><g transform="translate(92.953419, 195.875438)"><g><path d="M 1.15625 -8.46875 C 1.15625 -10.007812 1.539062 -11.445312 2.3125 -12.78125 C 3.09375 -14.125 4.148438 -15.191406 5.484375 -15.984375 C 6.816406 -16.785156 8.257812 -17.1875 9.8125 -17.1875 C 11.363281 -17.1875 12.804688 -16.785156 14.140625 -15.984375 C 15.472656 -15.191406 16.535156 -14.125 17.328125 -12.78125 C 18.117188 -11.445312 18.515625 -10.007812 18.515625 -8.46875 C 18.515625 -6.90625 18.117188 -5.457031 17.328125 -4.125 C 16.535156 -2.800781 15.472656 -1.75 14.140625 -0.96875 C 12.804688 -0.195312 11.363281 0.1875 9.8125 0.1875 C 8.238281 0.1875 6.789062 -0.195312 5.46875 -0.96875 C 4.144531 -1.75 3.09375 -2.800781 2.3125 -4.125 C 1.539062 -5.457031 1.15625 -6.90625 1.15625 -8.46875 Z M 4.625 -8.46875 C 4.625 -7.488281 4.859375 -6.582031 5.328125 -5.75 C 5.796875 -4.914062 6.429688 -4.253906 7.234375 -3.765625 C 8.046875 -3.285156 8.945312 -3.046875 9.9375 -3.046875 C 10.882812 -3.046875 11.75 -3.285156 12.53125 -3.765625 C 13.320312 -4.253906 13.941406 -4.910156 14.390625 -5.734375 C 14.835938 -6.554688 15.0625 -7.46875 15.0625 -8.46875 C 15.0625 -9.488281 14.828125 -10.414062 14.359375 -11.25 C 13.898438 -12.082031 13.273438 -12.738281 12.484375 -13.21875 C 11.691406 -13.707031 10.8125 -13.953125 9.84375 -13.953125 C 8.875 -13.953125 7.988281 -13.707031 7.1875 -13.21875 C 6.394531 -12.738281 5.769531 -12.082031 5.3125 -11.25 C 4.851562 -10.414062 4.625 -9.488281 4.625 -8.46875 Z M 4.625 -8.46875 "></path></g></g></g><g fill="#203e58" fill-opacity="1"><g transform="translate(131.097731, 195.875438)"><g><path d="M 11.265625 -12.890625 C 9.785156 -13.703125 8.5 -14.109375 7.40625 -14.109375 C 6.664062 -14.109375 6.09375 -13.960938 5.6875 -13.671875 C 5.28125 -13.378906 5.078125 -12.941406 5.078125 -12.359375 C 5.078125 -11.816406 5.375 -11.34375 5.96875 -10.9375 C 6.5625 -10.53125 7.351562 -10.140625 8.34375 -9.765625 C 9.132812 -9.472656 9.816406 -9.140625 10.390625 -8.765625 C 10.960938 -8.390625 11.4375 -7.867188 11.8125 -7.203125 C 12.1875 -6.546875 12.375 -5.707031 12.375 -4.6875 C 12.375 -3.8125 12.144531 -3 11.6875 -2.25 C 11.238281 -1.5 10.578125 -0.90625 9.703125 -0.46875 C 8.828125 -0.03125 7.78125 0.1875 6.5625 0.1875 C 5.539062 0.1875 4.53125 0.0351562 3.53125 -0.265625 C 2.53125 -0.566406 1.597656 -1.023438 0.734375 -1.640625 L 2.21875 -4.25 C 2.800781 -3.820312 3.46875 -3.46875 4.21875 -3.1875 C 4.976562 -2.90625 5.660156 -2.765625 6.265625 -2.765625 C 6.972656 -2.765625 7.585938 -2.914062 8.109375 -3.21875 C 8.628906 -3.519531 8.890625 -4.007812 8.890625 -4.6875 C 8.890625 -5.5625 8.066406 -6.320312 6.421875 -6.96875 C 5.453125 -7.351562 4.644531 -7.722656 4 -8.078125 C 3.351562 -8.429688 2.789062 -8.9375 2.3125 -9.59375 C 1.84375 -10.257812 1.609375 -11.09375 1.609375 -12.09375 C 1.609375 -13.5625 2.085938 -14.738281 3.046875 -15.625 C 4.015625 -16.519531 5.300781 -17.007812 6.90625 -17.09375 C 8.164062 -17.09375 9.21875 -16.945312 10.0625 -16.65625 C 10.914062 -16.375 11.742188 -15.972656 12.546875 -15.453125 Z M 11.265625 -12.890625 "></path></g></g></g><g fill="#203e58" fill-opacity="1"><g transform="translate(163.031917, 195.875438)"><g><path d="M 13.78125 -17 L 13.78125 -13.765625 L 5.546875 -13.765625 L 5.546875 -10.140625 L 12.84375 -10.140625 L 12.84375 -6.90625 L 5.546875 -6.90625 L 5.546875 -3.234375 L 14.109375 -3.234375 L 14.109375 0 L 2.1875 0 L 2.1875 -17 Z M 13.78125 -17 "></path></g></g></g><g fill="#203e58" fill-opacity="1"><g transform="translate(196.882234, 195.875438)"><g><path d="M 2.1875 -17 L 7.28125 -17 C 9.445312 -17 11.226562 -16.578125 12.625 -15.734375 C 14.03125 -14.898438 15.050781 -13.816406 15.6875 -12.484375 C 16.332031 -11.148438 16.65625 -9.722656 16.65625 -8.203125 C 16.65625 -6.566406 16.269531 -5.125 15.5 -3.875 C 14.726562 -2.632812 13.691406 -1.675781 12.390625 -1 C 11.085938 -0.332031 9.660156 0 8.109375 0 L 2.1875 0 Z M 7.53125 -3.234375 C 9.269531 -3.234375 10.644531 -3.675781 11.65625 -4.5625 C 12.675781 -5.457031 13.1875 -6.742188 13.1875 -8.421875 C 13.1875 -9.785156 12.90625 -10.863281 12.34375 -11.65625 C 11.78125 -12.457031 11.125 -13.007812 10.375 -13.3125 C 9.632812 -13.625 8.929688 -13.78125 8.265625 -13.78125 L 5.546875 -13.78125 L 5.546875 -3.234375 Z M 7.53125 -3.234375 "></path></g></g></g><g fill="#203e58" fill-opacity="1"><g transform="translate(233.156581, 195.875438)"><g><path d="M 10.59375 -3.328125 L 4.96875 -3.328125 L 3.578125 0 L 0.28125 0 L 7.9375 -17.671875 L 8.125 -17.671875 L 15.796875 0 L 11.921875 0 Z M 9.484375 -6.140625 L 7.859375 -10.28125 L 6.140625 -6.140625 Z M 9.484375 -6.140625 "></path></g></g></g><g fill="#203e58" fill-opacity="1"><g transform="translate(267.699471, 195.875438)"><g><path d="M 5.546875 -17 L 5.546875 -3.234375 L 13.53125 -3.234375 L 13.53125 0 L 2.1875 0 L 2.1875 -17 Z M 5.546875 -17 "></path></g></g></g><g fill="#203e58" fill-opacity="1"><g transform="translate(300.972639, 195.875438)"><g><path d="M 13.78125 -17 L 13.78125 -13.765625 L 5.546875 -13.765625 L 5.546875 -10.140625 L 12.84375 -10.140625 L 12.84375 -6.90625 L 5.546875 -6.90625 L 5.546875 -3.234375 L 14.109375 -3.234375 L 14.109375 0 L 2.1875 0 L 2.1875 -17 Z M 13.78125 -17 "></path></g></g></g><g fill="#203e58" fill-opacity="1"><g transform="translate(137.622287, 232.801812)"><g><path d="M 5.5 0 L 3.6875 -2.796875 L 2.390625 -2.796875 L 2.390625 0 L 1.109375 0 L 1.109375 -8.03125 L 3.359375 -8.03125 C 4.253906 -8.03125 4.972656 -7.800781 5.515625 -7.34375 C 6.054688 -6.882812 6.328125 -6.253906 6.328125 -5.453125 C 6.328125 -4.953125 6.222656 -4.488281 6.015625 -4.0625 C 5.804688 -3.644531 5.476562 -3.320312 5.03125 -3.09375 L 6.984375 0 Z M 2.390625 -4.03125 L 3.546875 -4.03125 C 4.054688 -4.03125 4.425781 -4.171875 4.65625 -4.453125 C 4.894531 -4.734375 5.015625 -5.050781 5.015625 -5.40625 C 5.015625 -5.613281 4.96875 -5.820312 4.875 -6.03125 C 4.789062 -6.238281 4.640625 -6.414062 4.421875 -6.5625 C 4.210938 -6.71875 3.929688 -6.796875 3.578125 -6.796875 L 2.390625 -6.796875 Z M 2.390625 -4.03125 "></path></g></g></g><g fill="#203e58" fill-opacity="1"><g transform="translate(149.425751, 232.801812)"><g><path d="M 6.4375 -8.03125 L 6.4375 -6.796875 L 2.390625 -6.796875 L 2.390625 -4.65625 L 5.984375 -4.65625 L 5.984375 -3.421875 L 2.390625 -3.421875 L 2.390625 -1.234375 L 6.578125 -1.234375 L 6.578125 0 L 1.109375 0 L 1.109375 -8.03125 Z M 6.4375 -8.03125 "></path></g></g></g><g fill="#203e58" fill-opacity="1"><g transform="translate(161.096843, 232.801812)"><g><path d="M 5.3125 -6.390625 C 4.625 -6.753906 4.007812 -6.9375 3.46875 -6.9375 C 3.070312 -6.9375 2.757812 -6.847656 2.53125 -6.671875 C 2.300781 -6.492188 2.1875 -6.253906 2.1875 -5.953125 C 2.1875 -5.648438 2.332031 -5.394531 2.625 -5.1875 C 2.914062 -4.988281 3.320312 -4.789062 3.84375 -4.59375 C 4.238281 -4.445312 4.578125 -4.285156 4.859375 -4.109375 C 5.140625 -3.929688 5.367188 -3.6875 5.546875 -3.375 C 5.734375 -3.0625 5.828125 -2.671875 5.828125 -2.203125 C 5.828125 -1.773438 5.722656 -1.390625 5.515625 -1.046875 C 5.304688 -0.703125 5 -0.425781 4.59375 -0.21875 C 4.1875 -0.0078125 3.707031 0.09375 3.15625 0.09375 C 2.664062 0.09375 2.1875 0.0195312 1.71875 -0.125 C 1.25 -0.28125 0.832031 -0.492188 0.46875 -0.765625 L 1.03125 -1.765625 C 1.300781 -1.554688 1.625 -1.382812 2 -1.25 C 2.375 -1.113281 2.71875 -1.046875 3.03125 -1.046875 C 3.425781 -1.046875 3.769531 -1.140625 4.0625 -1.328125 C 4.351562 -1.515625 4.5 -1.800781 4.5 -2.1875 C 4.5 -2.5 4.375 -2.757812 4.125 -2.96875 C 3.882812 -3.175781 3.539062 -3.363281 3.09375 -3.53125 C 2.644531 -3.695312 2.269531 -3.863281 1.96875 -4.03125 C 1.664062 -4.195312 1.40625 -4.425781 1.1875 -4.71875 C 0.96875 -5.019531 0.859375 -5.394531 0.859375 -5.84375 C 0.859375 -6.5 1.078125 -7.023438 1.515625 -7.421875 C 1.960938 -7.828125 2.550781 -8.046875 3.28125 -8.078125 C 3.8125 -8.078125 4.273438 -8.015625 4.671875 -7.890625 C 5.078125 -7.765625 5.453125 -7.59375 5.796875 -7.375 Z M 5.3125 -6.390625 "></path></g></g></g><g fill="#203e58" fill-opacity="1"><g transform="translate(171.92956, 232.801812)"><g><path d="M 2.390625 -8.03125 L 2.390625 0 L 1.109375 0 L 1.109375 -8.03125 Z M 2.390625 -8.03125 "></path></g></g></g><g fill="#203e58" fill-opacity="1"><g transform="translate(179.838978, 232.801812)"><g><path d="M 1.109375 -8.03125 L 3.390625 -8.03125 C 4.390625 -8.03125 5.21875 -7.832031 5.875 -7.4375 C 6.539062 -7.039062 7.023438 -6.53125 7.328125 -5.90625 C 7.628906 -5.28125 7.78125 -4.613281 7.78125 -3.90625 C 7.78125 -3.125 7.597656 -2.4375 7.234375 -1.84375 C 6.867188 -1.25 6.378906 -0.789062 5.765625 -0.46875 C 5.160156 -0.15625 4.492188 0 3.765625 0 L 1.109375 0 Z M 3.546875 -1.234375 C 4.117188 -1.234375 4.625 -1.335938 5.0625 -1.546875 C 5.5 -1.765625 5.835938 -2.082031 6.078125 -2.5 C 6.328125 -2.914062 6.453125 -3.414062 6.453125 -4 C 6.453125 -4.625 6.316406 -5.144531 6.046875 -5.5625 C 5.773438 -5.988281 5.429688 -6.300781 5.015625 -6.5 C 4.609375 -6.707031 4.179688 -6.8125 3.734375 -6.8125 L 2.390625 -6.8125 L 2.390625 -1.234375 Z M 3.546875 -1.234375 "></path></g></g></g><g fill="#203e58" fill-opacity="1"><g transform="translate(192.646293, 232.801812)"><g><path d="M 6.4375 -8.03125 L 6.4375 -6.796875 L 2.390625 -6.796875 L 2.390625 -4.65625 L 5.984375 -4.65625 L 5.984375 -3.421875 L 2.390625 -3.421875 L 2.390625 -1.234375 L 6.578125 -1.234375 L 6.578125 0 L 1.109375 0 L 1.109375 -8.03125 Z M 6.4375 -8.03125 "></path></g></g></g><g fill="#203e58" fill-opacity="1"><g transform="translate(204.317387, 232.801812)"><g><path d="M 8.203125 -8.03125 L 8.203125 0.28125 L 8.15625 0.28125 L 2.375 -5.328125 L 2.40625 0 L 1.109375 0 L 1.109375 -8.3125 L 1.171875 -8.3125 L 6.9375 -2.625 L 6.921875 -8.03125 Z M 8.203125 -8.03125 "></path></g></g></g><g fill="#203e58" fill-opacity="1"><g transform="translate(218.040299, 232.801812)"><g><path d="M 7.0625 -0.625 C 6.820312 -0.457031 6.492188 -0.296875 6.078125 -0.140625 C 5.660156 0.015625 5.207031 0.09375 4.71875 0.09375 C 3.882812 0.09375 3.15625 -0.0859375 2.53125 -0.453125 C 1.914062 -0.816406 1.441406 -1.304688 1.109375 -1.921875 C 0.773438 -2.535156 0.609375 -3.210938 0.609375 -3.953125 C 0.609375 -4.753906 0.773438 -5.46875 1.109375 -6.09375 C 1.441406 -6.726562 1.90625 -7.222656 2.5 -7.578125 C 3.101562 -7.941406 3.789062 -8.125 4.5625 -8.125 C 5.03125 -8.125 5.460938 -8.0625 5.859375 -7.9375 C 6.265625 -7.8125 6.617188 -7.648438 6.921875 -7.453125 L 6.421875 -6.25 C 5.828125 -6.675781 5.21875 -6.890625 4.59375 -6.890625 C 4.125 -6.890625 3.6875 -6.757812 3.28125 -6.5 C 2.875 -6.25 2.546875 -5.90625 2.296875 -5.46875 C 2.054688 -5.03125 1.9375 -4.550781 1.9375 -4.03125 C 1.9375 -3.476562 2.046875 -2.984375 2.265625 -2.546875 C 2.492188 -2.109375 2.816406 -1.765625 3.234375 -1.515625 C 3.648438 -1.265625 4.128906 -1.140625 4.671875 -1.140625 C 5.066406 -1.140625 5.421875 -1.195312 5.734375 -1.3125 C 6.046875 -1.4375 6.304688 -1.59375 6.515625 -1.78125 Z M 7.0625 -0.625 "></path></g></g></g><g fill="#203e58" fill-opacity="1"><g transform="translate(230.119549, 232.801812)"><g><path d="M 6.4375 -8.03125 L 6.4375 -6.796875 L 2.390625 -6.796875 L 2.390625 -4.65625 L 5.984375 -4.65625 L 5.984375 -3.421875 L 2.390625 -3.421875 L 2.390625 -1.234375 L 6.578125 -1.234375 L 6.578125 0 L 1.109375 0 L 1.109375 -8.03125 Z M 6.4375 -8.03125 "></path></g></g></g><g fill="#203e58" fill-opacity="1"><g transform="translate(171.365494, 169.991903)"><g><path d="M 44.617188 -46.894531 C 44.125 -47.089844 43.332031 -47.191406 41.058594 -47.386719 C 38.980469 -47.585938 23.644531 -48.179688 21.765625 -48.179688 L 18.996094 -48.277344 L 17.113281 -48.277344 C 17.410156 -48.675781 18.300781 -49.664062 18.894531 -50.160156 C 19.292969 -50.457031 19.6875 -50.851562 20.082031 -51.34375 C 20.480469 -51.839844 21.863281 -53.125 22.554688 -53.71875 L 23.546875 -54.511719 L 23.941406 -55.007812 C 24.238281 -55.304688 24.238281 -55.402344 24.039062 -55.699219 C 23.941406 -55.894531 23.742188 -55.996094 23.644531 -55.996094 C 23.445312 -55.996094 22.257812 -55.105469 22.160156 -54.808594 L 21.269531 -54.015625 C 20.183594 -53.125 19.984375 -53.027344 19.785156 -52.730469 C 19.589844 -52.53125 17.015625 -50.058594 16.621094 -49.761719 L 16.324219 -49.464844 L 15.53125 -48.574219 L 15.136719 -48.179688 L 1.1875 -47.882812 L -0.988281 -47.683594 C -2.671875 -47.585938 -7.417969 -47.191406 -8.210938 -46.992188 C -9.003906 -46.792969 -9.398438 -46.398438 -9.101562 -46.101562 C -9.003906 -45.90625 -7.023438 -46.101562 -5.640625 -46.398438 C -5.34375 -46.496094 -2.96875 -46.792969 -0.59375 -46.894531 L 1.878906 -47.089844 L 4.550781 -47.191406 L 7.816406 -47.386719 C 8.707031 -47.488281 12.070312 -47.488281 14.246094 -47.488281 C 14.148438 -47.289062 13.949219 -47.191406 13.851562 -46.992188 L 13.554688 -46.792969 L 13.257812 -46.398438 L 12.070312 -45.113281 C 10.683594 -43.628906 6.332031 -38.878906 5.441406 -37.59375 C 5.441406 -37.59375 3.859375 -35.714844 3.859375 -35.8125 C 3.859375 -35.714844 3.460938 -35.320312 3.066406 -34.921875 C 2.570312 -34.429688 1.78125 -33.539062 -0.296875 -31.066406 L -1.089844 -30.175781 L -1.878906 -29.183594 C -2.078125 -28.886719 -2.175781 -28.691406 -2.277344 -28.691406 C -2.472656 -28.691406 -2.96875 -28.097656 -4.550781 -26.019531 C -5.144531 -25.328125 -5.640625 -24.734375 -5.835938 -24.632812 C -5.9375 -24.4375 -6.925781 -23.25 -8.011719 -21.960938 L -10.488281 -18.894531 L -14.542969 -13.453125 C -15.53125 -12.070312 -16.125 -11.277344 -16.324219 -11.378906 L -16.324219 -11.179688 C -16.324219 -11.082031 -16.324219 -10.882812 -16.421875 -10.683594 C -16.523438 -10.386719 -16.621094 -10.289062 -16.71875 -10.386719 C -16.71875 -10.289062 -16.820312 -10.191406 -16.820312 -10.191406 C -16.820312 -9.992188 -16.820312 -9.894531 -16.917969 -9.894531 C -16.917969 -9.992188 -17.214844 -9.398438 -17.410156 -8.707031 C -17.808594 -7.714844 -17.90625 -7.320312 -17.808594 -6.828125 C -17.609375 -6.234375 -17.511719 -6.132812 -17.214844 -6.035156 C -16.820312 -6.035156 -16.621094 -6.035156 -16.523438 -6.234375 C -16.324219 -6.53125 -16.324219 -6.53125 -16.71875 -6.628906 C -17.113281 -6.628906 -17.113281 -6.726562 -17.113281 -7.125 C -17.015625 -7.617188 -16.226562 -9.300781 -15.53125 -10.386719 C -13.652344 -13.15625 -8.707031 -19.488281 -5.539062 -23.148438 L -3.957031 -25.03125 L -0.691406 -28.789062 L 1.980469 -31.757812 L 2.867188 -32.84375 L 4.054688 -34.132812 C 4.945312 -35.121094 5.738281 -36.109375 7.417969 -38.089844 C 8.011719 -38.78125 8.707031 -39.472656 9.003906 -39.769531 C 9.300781 -40.066406 9.792969 -40.660156 10.089844 -41.058594 L 11.773438 -42.835938 C 12.859375 -44.023438 13.554688 -44.617188 14.148438 -45.410156 L 15.039062 -46.300781 C 15.335938 -46.695312 15.632812 -46.894531 15.828125 -47.191406 L 16.324219 -47.488281 C 17.113281 -47.585938 17.707031 -47.488281 18.003906 -47.488281 L 18.402344 -47.488281 C 24.140625 -47.386719 37.890625 -46.992188 39.871094 -46.695312 C 40.464844 -46.496094 41.453125 -46.496094 41.945312 -46.398438 C 42.9375 -46.398438 42.9375 -46.398438 42.738281 -46.003906 C 42.539062 -45.804688 42.640625 -45.609375 42.738281 -45.507812 C 42.9375 -45.3125 43.035156 -45.210938 43.132812 -45.3125 L 44.125 -45.707031 C 45.210938 -46.199219 45.3125 -46.496094 44.617188 -46.894531 Z M 44.617188 -46.894531 "></path></g></g></g><g fill="#203e58" fill-opacity="1"><g transform="translate(181.456418, 169.991903)"><g><path d="M 35.617188 -54.414062 C 35.417969 -54.710938 34.429688 -54.710938 33.4375 -54.511719 L 32.351562 -54.3125 C 31.757812 -54.214844 30.769531 -53.917969 30.371094 -53.71875 L 29.582031 -53.523438 C 27.503906 -52.929688 24.734375 -51.742188 22.65625 -50.554688 L 21.566406 -49.960938 L 20.675781 -49.367188 L 18.996094 -48.277344 C 17.808594 -47.488281 16.421875 -46.496094 16.324219 -46.398438 L 13.15625 -43.925781 L 11.082031 -42.144531 L 7.714844 -39.175781 C 7.222656 -38.683594 6.628906 -38.089844 6.332031 -37.890625 L 5.441406 -37.59375 C 4.945312 -37.394531 4.550781 -37.296875 4.550781 -37.199219 C 4.550781 -37.199219 4.453125 -37.097656 4.351562 -37.097656 C 4.253906 -37.097656 3.957031 -37 3.5625 -36.800781 C 3.265625 -36.703125 3.066406 -36.605469 2.96875 -36.503906 L 1.980469 -36.109375 L -1.089844 -35.023438 C -1.386719 -34.921875 -1.78125 -34.726562 -1.878906 -34.625 C -2.078125 -34.230469 -1.980469 -34.03125 -1.582031 -34.03125 C -1.386719 -34.03125 -0.988281 -34.132812 -0.59375 -34.230469 L 0.394531 -34.726562 C 0.691406 -34.921875 1.089844 -35.023438 1.484375 -35.121094 L 3.265625 -35.714844 C 3.363281 -35.8125 3.5625 -35.8125 3.757812 -35.914062 C 3.757812 -36.011719 4.453125 -36.210938 4.550781 -36.109375 C 4.550781 -36.109375 3.859375 -35.320312 2.867188 -34.429688 L -0.59375 -30.769531 L -0.988281 -30.371094 L -1.878906 -29.285156 L -2.769531 -28.292969 C -3.066406 -27.996094 -3.460938 -27.601562 -3.460938 -27.207031 C -3.460938 -26.910156 -3.066406 -26.710938 -2.867188 -26.613281 C -2.570312 -26.515625 -2.472656 -26.613281 -2.375 -26.710938 L -2.078125 -26.910156 L -1.582031 -27.304688 L -1.285156 -27.601562 L -0.988281 -27.800781 L -0.792969 -27.898438 L 0.394531 -29.085938 L 0.988281 -29.382812 L 1.089844 -29.382812 L 1.683594 -29.777344 C 1.878906 -29.976562 2.375 -30.175781 2.769531 -30.273438 L 3.859375 -30.667969 C 4.15625 -30.769531 4.351562 -30.867188 4.351562 -30.769531 C 4.351562 -30.667969 4.351562 -30.667969 4.253906 -30.667969 C 4.15625 -30.667969 3.460938 -29.777344 3.164062 -29.183594 L 2.867188 -28.589844 C 2.472656 -27.699219 2.472656 -27.304688 2.96875 -26.910156 C 3.265625 -26.710938 3.460938 -26.613281 3.757812 -26.710938 L 3.957031 -26.808594 C 4.75 -26.910156 7.417969 -28.097656 7.816406 -28.292969 C 8.410156 -28.492188 8.210938 -28.589844 9.597656 -29.183594 C 9.792969 -29.183594 10.191406 -29.582031 10.683594 -29.777344 C 12.761719 -30.769531 10.980469 -30.074219 12.859375 -30.769531 C 13.75 -31.363281 13.058594 -31.363281 12.664062 -31.363281 L 10.191406 -30.273438 C 8.902344 -29.679688 5.441406 -28.195312 4.453125 -27.800781 L 4.054688 -27.699219 L 3.859375 -27.699219 C 3.757812 -27.699219 3.859375 -28.097656 4.15625 -28.691406 L 4.253906 -28.988281 C 4.453125 -29.382812 5.046875 -30.074219 5.9375 -30.964844 C 6.332031 -31.460938 6.429688 -31.558594 6.332031 -31.757812 C 6.132812 -32.054688 5.738281 -32.054688 4.453125 -31.65625 C 2.867188 -31.066406 1.980469 -30.769531 1.1875 -30.371094 C 1.089844 -30.371094 1.089844 -30.273438 0.988281 -30.273438 C 0.792969 -30.175781 0.59375 -30.074219 0.496094 -30.175781 L 0.496094 -30.371094 C 0.792969 -30.867188 3.460938 -33.539062 5.34375 -35.417969 L 7.023438 -37.097656 L 7.519531 -37.394531 L 11.277344 -39.078125 C 12.5625 -39.671875 13.355469 -39.96875 13.554688 -40.066406 L 15.234375 -40.761719 C 16.027344 -41.15625 16.820312 -41.453125 16.917969 -41.453125 C 17.113281 -41.453125 17.609375 -41.648438 18.003906 -41.847656 C 20.082031 -42.835938 24.632812 -44.914062 25.722656 -45.609375 L 26.316406 -45.804688 C 26.613281 -45.90625 26.808594 -46.101562 26.808594 -46.199219 C 26.910156 -46.300781 27.105469 -46.398438 27.304688 -46.496094 C 27.503906 -46.496094 27.898438 -46.695312 28.195312 -46.894531 L 29.679688 -47.785156 C 30.175781 -48.179688 31.164062 -48.773438 31.757812 -49.269531 L 33.242188 -50.355469 C 33.734375 -50.652344 35.023438 -51.9375 35.417969 -52.632812 C 35.914062 -53.324219 35.914062 -54.015625 35.617188 -54.414062 Z M 34.625 -52.929688 L 34.03125 -52.234375 C 33.835938 -51.9375 33.539062 -51.542969 33.4375 -51.542969 L 32.449219 -50.753906 C 31.855469 -50.160156 30.371094 -49.167969 29.085938 -48.378906 L 25.722656 -46.496094 L 24.535156 -45.90625 L 23.445312 -45.3125 L 21.566406 -44.421875 C 20.972656 -44.023438 20.28125 -43.726562 19.984375 -43.628906 L 18.597656 -43.132812 L 16.621094 -42.242188 L 14.445312 -41.351562 C 13.949219 -41.15625 13.453125 -40.957031 13.355469 -40.957031 C 13.257812 -40.957031 12.859375 -40.761719 12.367188 -40.5625 C 11.972656 -40.363281 11.476562 -40.167969 11.378906 -40.167969 C 11.277344 -40.167969 10.785156 -39.871094 10.191406 -39.574219 C 9.496094 -39.277344 9.199219 -39.175781 9.199219 -39.277344 C 9.199219 -39.375 9.199219 -39.574219 9.300781 -39.574219 L 10.488281 -40.5625 C 12.464844 -42.34375 16.125 -45.410156 16.324219 -45.410156 L 17.113281 -46.003906 C 18.597656 -47.191406 21.765625 -49.269531 24.238281 -50.554688 C 26.117188 -51.445312 28.691406 -52.433594 30.472656 -52.929688 L 32.054688 -53.421875 C 32.351562 -53.523438 34.03125 -53.71875 34.328125 -53.621094 C 34.527344 -53.523438 34.625 -53.421875 34.726562 -53.226562 C 34.726562 -53.125 34.625 -52.929688 34.625 -52.929688 Z M 34.625 -52.929688 "></path></g></g></g><g fill="#203e58" fill-opacity="1"><g transform="translate(195.702407, 169.991903)"><g><path d="M -0.988281 -27.007812 C 0.0976562 -27.207031 0.792969 -27.402344 2.570312 -28.292969 L 7.023438 -30.273438 L 8.308594 -30.867188 C 8.410156 -30.964844 8.410156 -31.261719 8.210938 -31.363281 L 8.113281 -31.460938 L 7.816406 -31.460938 L 7.617188 -31.363281 C 2.175781 -28.988281 -1.089844 -27.800781 -1.683594 -27.996094 C -1.878906 -28.097656 -1.878906 -28.195312 -1.582031 -28.492188 C -1.386719 -28.886719 -1.1875 -28.988281 -0.496094 -29.183594 C 0.59375 -29.480469 1.582031 -29.976562 3.265625 -31.164062 C 4.847656 -32.25 5.539062 -32.84375 5.441406 -33.140625 C 5.242188 -33.734375 4.351562 -33.636719 2.769531 -33.042969 C 0.792969 -32.351562 -1.484375 -30.570312 -2.472656 -28.988281 C -2.96875 -28.195312 -3.066406 -27.898438 -2.867188 -27.503906 C -2.769531 -26.808594 -2.570312 -26.808594 -0.988281 -27.007812 Z M -0.199219 -30.273438 C -0.0976562 -30.570312 1.582031 -31.757812 2.277344 -31.953125 C 2.867188 -32.25 3.859375 -32.648438 3.859375 -32.449219 C 3.757812 -32.351562 2.277344 -31.363281 1.386719 -30.867188 C 0.296875 -30.273438 -0.394531 -30.074219 -0.199219 -30.273438 Z M -0.199219 -30.273438 "></path></g></g></g></symbol><symbol xmlns:xlink="http://www.w3.org/1999/xlink" zoomAndPan="magnify" viewBox="0 0 1024.5 576" preserveAspectRatio="xMidYMid meet" version="1.0" id="symbol_440c863n"><defs><clipPath id="a430ac8d17"><path d="M 0 0.140625 L 1024 0.140625 L 1024 575.859375 L 0 575.859375 Z M 0 0.140625 " clip-rule="nonzero"></path></clipPath><clipPath id="706ead98fa"><path d="M 162 0.140625 L 862.890625 0.140625 L 862.890625 575.859375 L 162 575.859375 Z M 162 0.140625 " clip-rule="nonzero"></path></clipPath></defs></symbol></svg>